<?xml version="1.0" encoding="utf-8"?>
<!-- Generator: Adobe Illustrator 23.0.3, SVG Export Plug-In . SVG Version: 6.00 Build 0)  -->
<svg version="1.1" id="Isolation_Mode" xmlns="http://www.w3.org/2000/svg" xmlns:xlink="http://www.w3.org/1999/xlink" x="0px"
	 y="0px" viewBox="0 0 106.6 96.4" style="enable-background:new 0 0 106.6 96.4;" xml:space="preserve">
<style type="text/css">
	.st0{fill:#53241F;}
	.st1{fill:#DB6354;}
</style>
<g>
	<path class="st0" d="M102.4,0.4c-4,1-18.1,0.8-32.8,21C55,41.7,57.2,66.6,45.7,80.3C34.2,93.9,22.2,95.2,14,95.2
		C5.7,95.2-2.3,87.8,3.3,78c4.7-8.3,11-5.9,12.3-3.8c0.1,0.1,0.1,0.3,0.2,0.4c0,0,0,0,0,0h0c1.1,2,3.3,3.4,5.8,3.4
		c3.6,0,6.5-2.9,6.5-6.5c0-3.6-2.9-6.5-6.5-6.5C14,65,0,71.9,0,85.4c0,8.4,9.5,11,13.9,11c11.7,0,33.1-3.4,47.8-36.7
		C76.4,26.4,78.5,9.8,104.1,1C107.5,0.3,106.4-0.5,102.4,0.4z"/>
	<path class="st1" d="M93.3,52.2c-4.7-3.2-4.6-4.1-1.8-8c2.8-4,11.2-9.8,11-22.9c-0.3-13.1-17.1-19-46-1.1
		c-14.3,9-19.7,21.2-17.6,18.7c2.1-2.5,14.7-18.2,39.3-21.9c24.6-3.7,23.1,13,19.5,18.1c-3.6,5-7.4,9-11.8,12.9
		c-4.4,3.9-4.2,8,1.1,10.2c5.3,2.1,16.1,4.9,14.8,14.7c-1.3,9.7-7.4,18-20.5,21.6c-13.1,3.6-14.9-3.5-12.9-5.2
		c1.8-1.5,3.8-1.5,5.9-2.2c0,0,0.1,0,0.1,0c0.1,0,0.3-0.1,0.4-0.1c0.1,0,0.2-0.1,0.2-0.1c0,0,0,0,0,0c0,0,0,0,0,0
		c2.3-1,3.9-3.3,3.9-6c0-3.6-2.9-6.5-6.5-6.5c-2.2,0-4.2,1.1-5.4,2.8c-2.4,2.7-7.4,19.5,8.6,19.5c16.7,0,28.1-12.1,30.8-23.3
		C108.9,61.9,98,55.4,93.3,52.2z"/>
</g>
</svg>
