<?xml version="1.0" encoding="utf-8"?>
<!-- Generator: Adobe Illustrator 23.0.3, SVG Export Plug-In . SVG Version: 6.00 Build 0)  -->
<svg version="1.1" id="Layer_1" xmlns="http://www.w3.org/2000/svg" xmlns:xlink="http://www.w3.org/1999/xlink" x="0px" y="0px"
	 viewBox="0 0 283.5 283.5" style="enable-background:new 0 0 283.5 283.5;" xml:space="preserve">
<style type="text/css">
	.st0{fill:#53241F;}
	.st1{fill:#DB6354;}
</style>
<g>
	<g>
		<path class="st0" d="M180.8,40c-4,1-18.1,0.8-32.8,21c-14.7,20.2-12.4,45.2-24,58.8c-11.5,13.7-23.5,14.9-31.7,14.9
			c-8.3,0-16.3-7.3-10.7-17.1c4.7-8.3,11-5.9,12.3-3.8c0.1,0.1,0.1,0.3,0.2,0.4c0,0,0,0,0,0h0c1.1,2,3.3,3.4,5.8,3.4
			c3.6,0,6.5-2.9,6.5-6.5c0-3.6-2.9-6.5-6.5-6.5c-7.4,0-21.4,7-21.4,20.5c0,8.4,9.5,11,13.9,11c11.7,0,33.1-3.4,47.8-36.7
			c14.7-33.3,16.7-49.9,42.3-58.7C185.9,39.8,184.8,39,180.8,40z"/>
		<path class="st1" d="M171.7,91.7c-4.7-3.2-4.6-4.1-1.8-8c2.8-4,11.2-9.8,11-22.9c-0.3-13.1-17.1-19-46-1.1
			c-14.3,9-19.7,21.2-17.6,18.7c2.1-2.5,14.7-18.2,39.3-21.9c24.6-3.7,23.1,13,19.5,18.1c-3.6,5-7.4,9-11.8,12.9
			c-4.4,3.9-4.2,8,1.1,10.2c5.3,2.1,16.1,4.9,14.8,14.7c-1.3,9.7-7.4,18-20.5,21.6c-13.1,3.6-14.9-3.5-12.9-5.2
			c1.8-1.5,3.8-1.5,5.9-2.2c0,0,0.1,0,0.1,0c0.1,0,0.3-0.1,0.4-0.1c0.1,0,0.2-0.1,0.2-0.1c0,0,0,0,0,0c0,0,0,0,0,0
			c2.3-1,3.9-3.3,3.9-6c0-3.6-2.9-6.5-6.5-6.5c-2.2,0-4.2,1.1-5.4,2.8c-2.4,2.7-7.4,19.5,8.6,19.5c16.7,0,28.1-12.1,30.8-23.3
			C187.3,101.4,176.4,94.9,171.7,91.7z"/>
	</g>
	<g>
		<path class="st0" d="M57.8,190.3c2.5,0.5,4.5,1.2,6.1,2.3c1.5,1,2.6,2.2,3.2,3.5c0.6,1.3,0.9,2.6,0.9,4c0,3.9-1.4,6.4-4.3,7.5
			c-2.9,1.1-5.8,1.7-8.8,1.7c-0.3,0-0.8,0-1.5,0c-0.7,0-1.5,0-2.2-0.1c-0.8,0-1.3,0-1.7,0c-0.4,0-0.8,0-1.3,0
			c-1.1,0-2.8,0.1-5.2,0.2v-1c0.7-0.1,1.3-0.2,1.7-0.3c0.4-0.1,0.8-0.3,1.1-0.6c0.3-0.3,0.5-0.7,0.6-1.2c0.2-0.8,0.3-2.3,0.4-4.7
			c0.1-2.4,0.2-4.8,0.2-7.3c0-2.5,0.1-4.4,0.1-5.8c0-1.5,0-2.9-0.1-4.3c0-1.4-0.1-2.7-0.3-4.1c-0.2-1.3-0.3-2.2-0.6-2.7
			c-0.2-0.5-0.6-0.8-1.1-1.1c-0.5-0.2-1.2-0.4-2-0.5v-1c1.9,0.1,3.5,0.2,5,0.2c0.3,0,1.6-0.1,3.7-0.2c2.3-0.2,3.5-0.2,3.6-0.2
			c1.7,0,3.3,0.3,4.7,1s2.6,1.6,3.4,2.8c0.9,1.3,1.3,2.7,1.3,4.4c0,1.8-0.5,3.3-1.6,4.6C61.8,188.7,60.1,189.7,57.8,190.3z
			 M50.3,186.9v3.3c0.4,0,0.8-0.1,1.4-0.1c1.6,0,3-0.2,4.2-0.4c1.2-0.2,2.3-0.9,3.2-1.8c0.9-1,1.4-2.5,1.4-4.5c0-1.6-0.3-2.9-1-4.1
			c-0.7-1.1-1.6-2-2.7-2.5c-1.1-0.6-2.3-0.9-3.6-0.9c-1.2,0-2,0.1-2.2,0.4c-0.2,0.2-0.4,1.5-0.5,4C50.4,182.8,50.3,185,50.3,186.9z
			 M50.3,191.4v10.4c0,1.8,0,3.1,0.1,3.8c0.1,0.7,0.2,1.3,0.5,1.7c0.3,0.4,0.7,0.6,1.2,0.6c0.5,0.1,1.5,0.1,2.8,0.1
			c1.4,0,2.8-0.2,4.2-0.7s2.5-1.2,3.4-2.4c0.9-1.1,1.4-2.7,1.4-4.6c0-1.1-0.2-2.1-0.6-3.3c-0.4-1.1-1-2.1-1.8-3
			c-0.8-0.9-1.9-1.6-3.2-2.1c-1.3-0.6-2.9-0.8-4.7-0.8c-0.4,0-0.9,0-1.5,0.1S50.9,191.3,50.3,191.4z"/>
		<path class="st0" d="M71.5,192c0-3.2,0.9-6.2,2.6-8.9c1.7-2.7,4-4.9,6.8-6.5c2.8-1.6,5.8-2.4,9-2.4c2.2,0,4.3,0.4,6.4,1.3
			c2.1,0.8,4,2,5.6,3.6c1.7,1.5,3,3.4,4,5.6c1,2.2,1.5,4.6,1.5,7.2c0,3.2-0.8,6.1-2.4,8.9c-1.6,2.7-3.8,4.9-6.6,6.6
			c-2.8,1.6-6,2.4-9.5,2.4c-2.7,0-5.1-0.5-7.3-1.6c-2.2-1.1-4-2.5-5.6-4.3s-2.7-3.7-3.4-5.8S71.5,194,71.5,192z M75.4,190
			c0,3.1,0.7,6,2.2,8.8c1.4,2.8,3.4,5,5.8,6.6c2.4,1.7,5,2.5,7.7,2.5c2,0,3.9-0.5,5.8-1.5c1.8-1,3.4-2.5,4.5-4.6
			c1.2-2.1,1.8-4.7,1.8-7.7c0-2.4-0.4-4.8-1.2-6.9c-0.8-2.2-1.9-4.1-3.3-5.8s-3-2.9-4.9-3.8c-1.8-0.9-3.8-1.4-5.8-1.4
			c-2.2,0-4.3,0.6-6.3,1.7c-1.9,1.1-3.5,2.7-4.7,4.8C76,184.7,75.4,187.2,75.4,190z"/>
		<path class="st0" d="M112,175.9V175c2.2,0,3.7,0,4.4,0.1s1.3,0,1.7,0.1c3,0,4.9,0,5.9-0.1l-0.1,1c-1.2,0.1-2.1,0.3-2.7,0.4
			c-0.6,0.2-1,0.6-1.3,1.2c-0.2,0.4-0.3,1.4-0.3,2.9c-0.1,1.6-0.1,3.6-0.2,6c-0.1,2.7-0.1,5.2-0.2,7.5c0,2.2-0.1,4.4-0.1,6.6
			c0,2,0.1,3.5,0.2,4.4s0.3,1.6,0.5,1.8c0.3,0.2,0.8,0.4,1.5,0.5c0.7,0.1,2.2,0.2,4.5,0.2c2.5,0,4.6-0.2,6.3-0.6
			c1.7-0.4,3-0.8,3.8-1.3c1.1-0.7,1.9-1.9,2.3-3.5l0.9,0.1c-0.1,0.7-0.3,1.8-0.7,3.3c-0.4,1.5-0.8,2.8-1.3,4
			c-1.5-0.2-2.7-0.3-3.6-0.3c-0.5,0-1.1,0-1.5,0c-0.5,0-1,0-1.6,0h-18.6l-0.1-0.8c1-0.2,1.8-0.4,2.3-0.7c0.5-0.2,0.8-0.7,1.1-1.3
			c0.2-0.6,0.4-1.5,0.5-2.7c0.1-1.2,0.1-3,0.1-5.3l0.1-11.7c0-2.6,0-4.6,0-6c0-1.4-0.2-2.4-0.4-3c-0.2-0.7-0.5-1.1-1-1.3
			C113.8,176.1,113,176,112,175.9z"/>
		<path class="st0" d="M168.6,201.3h0.8c-0.3,1.8-0.6,3.4-0.9,4.6s-0.8,2.4-1.3,3.5c-0.6-0.1-1.4-0.1-2.4-0.1c-1,0-2.4,0-4.2,0
			c-1.1,0-2.3,0-3.5-0.1c-1.3,0-1.8-0.1-1.6-0.1c-1.2,0-2.5,0-4,0c-1.5,0-3.4,0.1-5.5,0.1c-2.2,0.1-3.7,0.1-4.7,0.2l0.1-0.9
			c0.6-0.1,1.1-0.3,1.7-0.4s1-0.3,1.2-0.5s0.4-0.4,0.4-0.7c0.1-0.3,0.2-0.7,0.3-1.4c0.1-0.7,0.2-1.9,0.3-3.6
			c0.1-1.8,0.2-3.7,0.2-5.9s0.1-3.6,0.1-4.1l-0.2-8.4c-0.1-2.6-0.2-4.4-0.3-5.3c-0.2-0.9-0.4-1.5-0.9-1.8s-1.2-0.6-2.4-0.8
			c0-0.3,0-0.5,0.1-0.7h17c1.9,0,4.8-0.1,8.6-0.2c-0.1,1.5-0.2,3-0.5,4.6s-0.5,2.3-0.9,2.3c-0.4,0-0.7-0.1-0.7-0.4
			c0-0.1,0-0.4,0.1-1c0.1-0.6,0.1-0.9,0.1-1c0-1.3-0.8-2.1-2.3-2.5c-1.5-0.4-3.4-0.5-5.6-0.5c-2.6,0-5.3,0.2-8.1,0.5
			c-0.3,2.9-0.5,5.4-0.5,7.4c0,1.3,0,2.8,0,4.5s0,2.5,0,2.4c0.4,0,1.7,0.1,3.9,0.1c3.7,0,6.3-0.1,7.7-0.2c0.8-0.1,1.3-0.2,1.6-0.3
			c0.3-0.1,0.5-0.4,0.8-0.9s0.5-1.3,0.8-2.3l0.8,0.1c0,1.8,0,3.5,0,4.9s0,3.1,0,5h-0.9c-0.1-1.6-0.3-2.8-0.7-3.4
			c-0.4-0.6-1.3-1-2.5-1.2c-1.2-0.2-3.4-0.3-6.6-0.3c-2,0-3.6,0.1-4.8,0.3l-0.1,3.8c-0.1,4.6,0,8.1,0.5,10.6
			c0.3,0.1,0.7,0.2,1.1,0.3c0.4,0.1,0.9,0.2,1.3,0.3c0.4,0.1,1,0.1,1.7,0.2c0.7,0.1,1.7,0.1,2.8,0.1c2.8,0,4.9-0.2,6.5-0.6
			c1.6-0.4,2.8-1.1,3.6-2S168,203,168.6,201.3z"/>
		<path class="st0" d="M187.8,197.3l-3.1-4.3c-2.3,0-4.3-0.1-5.8-0.3l-0.1,6.4c0,1.3,0,2.8,0.1,4.5c0.1,1.7,0.3,2.8,0.5,3.5
			c0.1,0.4,0.4,0.7,0.7,0.9c0.3,0.2,1.1,0.4,2.3,0.7c0.4,0.1,0.6,0.2,0.6,0.4c0,0.4-0.1,0.6-0.4,0.6c-0.3,0-1-0.1-2.2-0.3
			c-1.5-0.1-2.4-0.2-2.8-0.2c-1.7,0-3.5,0.1-5.3,0.4c-0.1,0-0.3,0-0.5,0.1c-0.4,0-0.5-0.2-0.5-0.5c0-0.2,0.1-0.3,0.2-0.4
			s0.4-0.2,0.9-0.3c0.8-0.2,1.4-0.5,1.7-1c0.4-0.4,0.6-1.3,0.8-2.5c0.2-1.3,0.2-3.3,0.3-6.1v-11.7c0-2.9,0-5,0-6.3
			c-0.1-1.3-0.2-2.3-0.4-3c-0.2-0.6-0.6-1-1.1-1.3c-0.5-0.2-1.2-0.4-2.3-0.5l0.1-0.9c0.9,0,2.1,0.1,3.6,0.1c0.4,0,2-0.1,4.6-0.3
			c2.7-0.2,4.3-0.3,5.1-0.3c1.9,0,3.5,0.3,5,0.8c1.5,0.5,2.7,1.2,3.7,2s1.8,1.8,2.3,2.9c0.5,1.1,0.8,2.2,0.8,3.4
			c0,1.2-0.3,2.3-0.8,3.4c-0.5,1.1-1.3,2.1-2.4,3c-1.1,0.9-2.5,1.7-4.2,2.3l1.2,1.8c1.7,2.5,3,4.5,4.1,6.1c1.1,1.5,2.3,3,3.5,4.5
			c1.3,1.4,2.5,2.6,3.9,3.5c1.3,0.9,2.6,1.4,3.9,1.5c0.3,0.1,0.5,0.2,0.5,0.5c0,0.2-0.1,0.3-0.2,0.4c-0.2,0.1-0.5,0.1-1.1,0.1
			c-1.7,0-3.4-0.4-5-1.1s-3.1-1.8-4.5-3c-1.4-1.3-2.7-2.6-3.8-4C190.6,201.2,189.3,199.4,187.8,197.3z M179.1,191
			c1.2,0.3,2.6,0.4,4.3,0.4c0.8,0,1.7-0.1,2.7-0.2c0.9-0.1,1.9-0.4,2.9-0.8c1-0.4,1.9-1.1,2.6-2.1c0.7-1,1.1-2.4,1.1-4.1
			c0-1.2-0.3-2.5-0.9-3.8s-1.6-2.4-2.9-3.4c-1.3-0.9-2.9-1.4-4.8-1.4c-0.8,0-1.7,0.1-2.6,0.3c-1,0.2-1.6,0.5-1.7,1
			C179.3,177.8,179.1,182.5,179.1,191z"/>
		<path class="st0" d="M203.9,192c0-3.2,0.9-6.2,2.6-8.9c1.7-2.7,4-4.9,6.8-6.5c2.8-1.6,5.8-2.4,9-2.4c2.2,0,4.3,0.4,6.4,1.3
			c2.1,0.8,4,2,5.7,3.6c1.7,1.5,3,3.4,4,5.6c1,2.2,1.5,4.6,1.5,7.2c0,3.2-0.8,6.1-2.4,8.9c-1.6,2.7-3.8,4.9-6.6,6.6
			c-2.8,1.6-6,2.4-9.5,2.4c-2.7,0-5.1-0.5-7.3-1.6c-2.2-1.1-4-2.5-5.6-4.3s-2.7-3.7-3.4-5.8C204.3,196,203.9,194,203.9,192z
			 M207.9,190c0,3.1,0.7,6,2.2,8.8c1.5,2.8,3.4,5,5.8,6.6c2.4,1.7,5,2.5,7.7,2.5c2,0,3.9-0.5,5.8-1.5c1.8-1,3.4-2.5,4.5-4.6
			c1.2-2.1,1.8-4.7,1.8-7.7c0-2.4-0.4-4.8-1.2-6.9c-0.8-2.2-1.9-4.1-3.3-5.8s-3-2.9-4.9-3.8c-1.8-0.9-3.8-1.4-5.8-1.4
			c-2.2,0-4.3,0.6-6.3,1.7c-1.9,1.1-3.5,2.7-4.7,4.8C208.5,184.7,207.9,187.2,207.9,190z"/>
	</g>
	<g>
		<path class="st0" d="M88.5,167.3l0.3,0.6c-1.8,1.5-3.6,2.2-5.4,2.2c-1.1,0-2.2-0.2-3.3-0.7c-1.1-0.4-2-1-2.7-1.7
			c-0.4-0.5-0.7-1.2-1-2c-0.2-0.9-0.3-1.7-0.3-2.5c0-1.6,0.4-3.1,1.3-4.5c0.9-1.4,2-2.4,3.3-3.2s2.5-1.1,3.6-1.1
			c0.7,0,1.6,0.2,2.8,0.6s1.8,0.7,1.8,1.1c0,0.1-0.2,0.5-0.6,1s-0.7,0.8-0.9,0.8c-0.1,0-0.3-0.1-0.4-0.2c-0.2-0.1-0.5-0.3-1-0.5
			c-1.4-0.6-2.6-0.9-3.6-0.9c-1.3,0-2.3,0.4-3,1.3s-1,2.2-1,3.9c0,1.6,0.3,2.9,1,4c0.7,1.1,1.5,1.9,2.5,2.4s1.9,0.8,2.7,0.8
			c0.7,0,1.3-0.1,1.9-0.4C87.2,168,87.8,167.6,88.5,167.3z"/>
		<path class="st0" d="M89.9,157.8v-0.8l4.4-2.4l0.4-0.2c0.2,0,0.3,0.1,0.3,0.4l-0.2,3.4c-0.2,2.7-0.2,4.3-0.2,5
			c0,1.5,0.2,2.7,0.6,3.7c0.4,1,1.3,1.5,2.8,1.5c0.5,0,0.9-0.1,1.4-0.2c0.5-0.2,1.1-0.4,1.7-0.7c0.7-0.3,1.2-0.6,1.5-0.7
			c0-1,0-1.6,0.1-1.9l0.1-4c0-1.2,0-2.1-0.1-2.6c-0.1-0.5-0.3-0.8-0.7-1c-0.3-0.1-0.9-0.2-1.7-0.3l0-0.8l5.3-1.2
			c-0.1,1.2-0.1,2.3-0.2,3.4c-0.1,1.1-0.1,2.2-0.2,3.5c-0.1,1.2-0.1,2.1-0.1,2.7c0,1.9,0.1,3.3,0.4,4c0.7,0,1.4-0.2,2.2-0.5v0.9
			c-1.5,0.4-3,0.9-4.5,1.5c-0.2-0.7-0.4-1.7-0.5-2.8c-3.2,1.6-5.5,2.5-6.7,2.5c-0.8,0-1.7-0.4-2.5-1.2c-0.8-0.8-1.2-2.4-1.1-4.7
			l0.2-4.4c0-0.8,0-1.4-0.1-1.8c-0.1-0.4-0.3-0.6-0.8-0.6C91.2,157.2,90.7,157.4,89.9,157.8z"/>
		<path class="st0" d="M108.6,169.8v-0.7c0.6-0.1,1.1-0.2,1.4-0.3c0.3-0.1,0.5-0.3,0.7-0.5s0.2-0.6,0.3-1c0.1-1,0.2-2.5,0.2-4.5
			c0-2,0.1-4,0.1-5.9c0-2,0-3.5,0-4.7c0-2.9-0.1-4.9-0.4-5.8c-0.2-0.6-0.5-0.8-0.9-0.8c-0.2,0-0.4,0-0.7,0.1
			c-0.3,0.1-0.5,0.2-0.6,0.2l0-0.7c0.1-0.1,0.3-0.2,0.5-0.3c0.2-0.1,0.4-0.2,0.6-0.3c0.2-0.1,0.4-0.2,0.6-0.3
			c0.3-0.1,0.5-0.2,0.7-0.3c0.8-0.4,1.4-0.6,1.8-0.8s0.7-0.4,0.9-0.7h0.6c-0.1,0.5-0.3,1.4-0.4,2.7s-0.2,3-0.3,5
			c-0.1,2-0.1,3.8-0.1,5.2c0,1.5,0,2.3,0,2.7l0,2.7c0.3-0.1,0.9-0.4,1.8-1s1.7-1.2,2.4-1.9s1-1.2,1-1.6c0-0.3-0.1-0.6-0.4-0.7
			c-0.2-0.1-0.6-0.2-1.1-0.3v-0.6l1.8,0c0.4,0,1.3,0,2.6,0c0.7,0,1.8,0,3.3,0l-0.1,0.8c-0.8,0.1-1.6,0.3-2.3,0.6
			c-0.7,0.3-1.8,0.9-3.1,1.8l-3.4,2.3c0.4,0.4,2.1,2.1,5.2,5c1.6,1.6,2.7,2.6,3.4,3c0.7,0.4,1.3,0.7,1.9,0.8v0.7
			c-0.2,0-0.4,0-0.6-0.1c-0.2,0-0.4,0-0.5,0s-0.5,0-1,0h-1.5c-1.4,0-2.6,0-3.5,0.1v-0.7c0.1,0,0.4-0.1,0.7-0.1
			c0.3,0,0.5-0.1,0.7-0.1c0.2,0,0.3-0.1,0.3-0.2c0-0.1-0.2-0.5-0.6-1c-0.4-0.5-0.8-0.9-1-1.2c-1.1-1.1-2.1-2.1-2.9-2.9l-1.3-1.2
			c-0.1-0.1-0.3-0.3-0.6-0.5c-0.3-0.2-0.5-0.4-0.6-0.4c-0.2,0-0.3,0.2-0.3,0.7v2.1c0,1.2,0,2.1,0,2.7c0,0.5,0.1,0.9,0.1,1.2
			c0.1,0.3,0.2,0.4,0.3,0.5c0.3,0.1,0.9,0.3,1.9,0.4l0,0.7c-0.7-0.1-1.5-0.2-2.5-0.2C111.9,169.6,110.3,169.7,108.6,169.8z"/>
		<path class="st0" d="M127.9,169.8l0.1-0.6c1.1-0.1,1.8-0.3,1.9-0.6c0.1-0.1,0.1-0.6,0.2-1.4c0.1-0.8,0.1-1.8,0.1-2.9
			c0-1.1,0-1.8,0-1.9c0-1.9,0-3.1-0.1-3.6c-0.1-0.5-0.2-0.9-0.3-1.1c-0.1-0.1-0.4-0.1-1-0.2c-0.6-0.1-0.9-0.2-0.9-0.3
			c0-0.2,0.1-0.3,0.4-0.4c1.6-0.5,3.1-1.4,4.6-2.6c0.1,0,0.2,0,0.4,0.1c-0.1,0.5-0.2,1.3-0.3,2.4s-0.2,2.1-0.2,3.3
			c-0.1,1.1-0.1,2.2-0.1,3c0,0.7,0,1.6,0.1,2.8c0,1.2,0.1,2.1,0.2,2.5c0.1,0.2,0.2,0.4,0.4,0.5c0.2,0.1,0.5,0.1,0.9,0.2
			c0.5,0,0.9,0.1,1.4,0.1l0.2,0.6L127.9,169.8z M130.9,146.2c0-0.4,0.2-0.8,0.5-1.1c0.3-0.3,0.7-0.4,1.1-0.4s0.8,0.2,1.1,0.5
			c0.3,0.3,0.4,0.7,0.4,1.1s-0.1,0.8-0.4,1.1c-0.3,0.3-0.6,0.5-1.1,0.5c-0.4,0-0.8-0.2-1.1-0.5C131,146.9,130.9,146.6,130.9,146.2z"
			/>
		<path class="st0" d="M150.3,159.4l-9.9,2.1c0.1,1.2,0.2,2.2,0.4,2.9c0.2,0.7,0.5,1.4,1.1,2.1c1,1.3,2.2,2,3.7,2
			c0.6,0,1.2-0.1,1.9-0.3c0.7-0.2,1.4-0.6,2.2-1.2l0.4,0.5c-2.3,1.6-4.3,2.5-6.1,2.5c-1.9,0-3.4-0.7-4.4-2.1
			c-1.1-1.4-1.6-3.1-1.6-4.9c0-1.9,0.4-3.5,1.2-4.7c0.8-1.2,1.7-2.2,2.7-2.7c1-0.6,1.8-0.8,2.3-0.8c0.6,0,1.2,0.1,1.8,0.3
			c0.6,0.2,1.3,0.6,1.9,1.1c0.6,0.5,1.1,1.3,1.5,2.2c0.1,0.2,0.2,0.3,0.3,0.4c0.1,0.1,0.3,0.1,0.6,0.1L150.3,159.4z M140.5,160.8
			l2.6-0.6c0.1-0.1,0.5-0.2,1.2-0.3s1.2-0.3,1.4-0.3c0.7-0.2,1.1-0.3,1.3-0.3c0.2-0.1,0.3-0.2,0.3-0.3c0-0.2-0.2-0.6-0.5-1.1
			c-0.3-0.5-0.8-1-1.4-1.4c-0.6-0.4-1.3-0.6-2.1-0.6c-1,0-1.7,0.5-2.1,1.6S140.6,159.6,140.5,160.8z"/>
		<path class="st0" d="M152.1,169.8l0-0.6c0.7-0.1,1.1-0.3,1.4-0.4c0.3-0.1,0.5-0.4,0.7-0.9c0.2-0.5,0.3-1.2,0.4-2.2
			c0.1-1,0.1-2.5,0.1-4.5c0-1.6-0.1-2.7-0.3-3.2s-0.6-0.8-1.3-0.8c-0.4,0-0.8,0.1-1.2,0.2l0.1-0.6l5.1-3c0.1,0.8,0.1,1.9,0.1,3.4
			l2.1-1.2c0.1-0.1,0.2-0.1,0.3-0.2c0.1-0.1,0.3-0.2,0.5-0.3s0.5-0.3,0.9-0.6s0.8-0.5,1.1-0.7l0.2,0.1c0.1,0.1,0.2,0.1,0.3,0.2
			c0.4,0.2,0.7,0.4,0.9,0.6c0.2,0.2,0.3,0.6,0.3,1c0,0.5-0.2,0.9-0.6,1.3c-0.4,0.3-0.9,0.5-1.5,0.6c0-0.4-0.1-0.8-0.3-1
			s-0.5-0.4-0.9-0.4c-0.4,0-0.9,0.1-1.4,0.4s-0.9,0.6-1.2,0.8c-0.3,0.3-0.5,0.5-0.6,0.7c-0.1,0.2-0.1,0.7-0.1,1.4
			c-0.1,2.2-0.1,3.4-0.1,3.5c0,2.6,0.1,4.2,0.4,4.8c0.1,0.2,0.3,0.3,0.4,0.4c0.1,0,0.4,0.1,0.8,0.1l0.5,0l2.4,0l0,0.8
			c-0.1,0-0.5,0-1.2,0c-0.8,0-1.3,0-1.5,0L152.1,169.8z"/>
		<path class="st0" d="M166,169.4l0-0.6c0.7-0.1,1.2-0.3,1.6-0.4c0.3-0.1,0.5-0.3,0.7-0.5c0.1-0.2,0.2-0.4,0.2-0.8
			c0.1-0.7,0.2-1.6,0.2-2.7c0-1.1,0.1-2.1,0.1-3.2c0-1.5,0-2.5-0.1-3.1s-0.3-0.9-0.6-1s-0.9-0.3-1.8-0.4c0-0.2,0-0.3,0-0.4
			c0.6-0.1,1.3-0.4,2.3-0.8s1.4-0.7,1.5-0.7c0.5-0.3,0.8-0.4,0.9-0.4c0.2,0,0.3,0.2,0.4,0.6c0.1,0.4,0.1,1,0.1,1.9
			c1.4-0.8,2.6-1.4,3.6-1.7c0.9-0.3,1.8-0.5,2.7-0.5c1.3,0,2.2,0.3,2.8,0.8c0.6,0.6,0.9,1.2,1.1,2c0.1,0.8,0.2,1.8,0.2,3.2v4.7
			c0,1.9,0.1,2.9,0.3,3c0.1,0.1,0.4,0.2,1,0.3s0.9,0.2,1,0.3l0,0.6c-1-0.2-2.1-0.2-3.4-0.2c-1.1,0-2.4,0.1-4,0.2v-0.6
			c1.2-0.2,1.9-0.6,2.2-1.1c0.2-0.4,0.3-1.4,0.4-2.8c0.1-1.4,0.1-2.5,0.1-3.3c0-1.2,0-2.1-0.1-2.9c-0.1-0.7-0.4-1.4-0.8-1.9
			s-1.1-0.8-2.1-0.8c-0.4,0-1.1,0.1-1.9,0.3c-0.9,0.2-1.9,0.6-3,1.2l-0.1,5.3c0,2.2,0,3.7,0.1,4.4c0,0.3,0.1,0.6,0.2,0.7
			c0.1,0.2,0.3,0.3,0.7,0.4s0.9,0.2,1.7,0.3l0,0.6c-0.3,0-0.7-0.1-1.2-0.1c-0.5,0-1.2-0.1-2.1-0.1H166z"/>
		<path class="st0" d="M185.5,169.8l0.1-0.6c1.1-0.1,1.8-0.3,1.9-0.6c0.1-0.1,0.1-0.6,0.2-1.4c0.1-0.8,0.1-1.8,0.1-2.9
			c0-1.1,0-1.8,0-1.9c0-1.9,0-3.1-0.1-3.6c-0.1-0.5-0.2-0.9-0.3-1.1c-0.1-0.1-0.4-0.1-1-0.2c-0.6-0.1-0.9-0.2-0.9-0.3
			c0-0.2,0.1-0.3,0.4-0.4c1.6-0.5,3.1-1.4,4.6-2.6c0.1,0,0.2,0,0.4,0.1c-0.1,0.5-0.2,1.3-0.3,2.4s-0.2,2.1-0.2,3.3
			c-0.1,1.1-0.1,2.2-0.1,3c0,0.7,0,1.6,0.1,2.8s0.1,2.1,0.2,2.5c0.1,0.2,0.2,0.4,0.4,0.5c0.2,0.1,0.5,0.1,0.9,0.2
			c0.5,0,0.9,0.1,1.4,0.1l0.2,0.6L185.5,169.8z M188.5,146.2c0-0.4,0.2-0.8,0.5-1.1c0.3-0.3,0.7-0.4,1.1-0.4s0.8,0.2,1.1,0.5
			c0.3,0.3,0.4,0.7,0.4,1.1s-0.1,0.8-0.4,1.1c-0.3,0.3-0.6,0.5-1.1,0.5c-0.4,0-0.8-0.2-1.1-0.5C188.7,146.9,188.5,146.6,188.5,146.2
			z"/>
		<path class="st0" d="M198.8,158.1l-2.4,1.1c-0.1-0.4-0.2-0.7-0.2-0.9c0-0.7,0.4-1.3,1.2-1.9s1.8-1,2.8-1.4c1-0.4,1.8-0.5,2.2-0.5
			c0.4,0,0.8,0.2,1.3,0.5s0.9,0.6,1.3,0.9c0.3,0.3,0.5,0.5,0.6,0.8c0.2,0.3,0.3,0.7,0.4,1.2c0.1,0.6,0.2,1.3,0.2,2.1
			c0,0.3,0,1.1-0.1,2.6l-0.1,1.5c-0.1,0.7-0.1,1.3-0.1,1.7c0,0.5,0.1,1.1,0.2,1.7c0.1,0.6,0.4,0.9,0.9,0.9c0.5,0,1.2-0.2,2.1-0.6
			v0.8l-2.9,1.2c-0.6,0.2-0.9,0.3-1,0.3c-0.3,0-0.6-0.2-0.9-0.6c-0.3-0.4-0.5-0.9-0.7-1.4c-2.4,1.4-4.3,2-5.6,2
			c-0.8,0-1.4-0.2-1.8-0.7s-0.6-1.2-0.6-2.1c0-0.9,0.1-1.6,0.3-2c0.2-0.4,0.6-0.8,1.1-1c1-0.5,2-0.9,3.1-1.1
			c1.1-0.2,2.3-0.5,3.5-0.6l0.1-2.4v-0.7c0-1.1-0.3-2-1-2.7c-0.6-0.7-1.4-1-2.2-1c-0.4,0-0.8,0.1-1.2,0.3c-0.4,0.2-0.6,0.6-0.6,1
			C198.6,157.4,198.7,157.7,198.8,158.1z M203.5,167.4c0-0.4,0-1.7,0.1-3.7c-1.7-0.1-3.1,0.1-4.2,0.6c-1.1,0.5-1.6,1.2-1.6,2
			c0,0.6,0.2,1.2,0.5,1.7c0.3,0.5,0.8,0.8,1.3,0.8C200.3,168.8,201.6,168.4,203.5,167.4z"/>
	</g>
	<g>
		<g>
			<path class="st0" d="M92.8,237.8h-5.5c-1.1,0-2.2,0-3.3,0.1c0,0,0-0.1,0-0.1s0-0.1,0-0.1c0.9-0.9,1.8-2,2.8-3
				c0.9-1.1,1.8-2.1,2.5-3s1.6-2,2.5-3.3s1.7-2.4,2.5-3.5c-0.5,0-1.1,0-1.8-0.1c-0.7,0-1.4,0-2.3,0c-1.6,0-2.7,0-3.4,0.1
				c-0.7,0.1-1.2,0.3-1.5,0.5c-0.3,0.3-0.7,0.7-0.9,1.3l-0.3-0.2c0.1-0.3,0.2-0.5,0.2-0.8c0.1-0.3,0.1-0.5,0.1-0.6s0.1-0.2,0.1-0.3
				l0.2-1c0-0.1,0-0.1,0.1-0.2c0,0,0.1-0.1,0.1-0.1s0.1,0,0.2,0.1c0.1,0.2,0.4,0.4,0.8,0.4c0.2,0,0.5,0.1,0.7,0.1c0.2,0,0.5,0,0.8,0
				c0.3,0,0.8,0,1.5,0c2.6,0,5.3,0,7.9-0.1v0.2c-0.5,0.7-0.9,1.2-1.2,1.6c-0.3,0.4-0.7,0.9-1.1,1.4c-0.4,0.5-0.8,1-1,1.3
				c-0.3,0.3-0.4,0.5-0.5,0.6l-2.4,3c-0.1,0.1-0.4,0.5-0.8,1.1c-0.2,0.2-0.4,0.5-0.6,0.8c-0.2,0.3-0.5,0.6-0.8,1
				c-0.3,0.3-0.5,0.7-0.8,1c-0.3,0.3-0.6,0.7-0.9,1c0.7,0.1,1.6,0.2,2.8,0.2c1.7,0,2.9,0,3.7-0.1c0.8-0.1,1.5-0.3,2.1-0.6
				c0.5-0.2,0.8-0.4,1-0.6c0.2-0.2,0.4-0.6,0.6-1.1l0.3,0.2c-0.1,0.3-0.3,0.8-0.6,1.6c-0.3,0.8-0.5,1.3-0.6,1.5c-0.1,0-0.2,0-0.2,0
				c0-0.1-0.2-0.2-0.5-0.3C95,237.9,94.2,237.8,92.8,237.8z"/>
			<path class="st0" d="M98.1,236.9c0-0.1,0.1-0.2,0.3-0.3c0.3-0.2,0.6-0.5,0.8-0.9c0.1-0.1,0.2-0.2,0.3-0.2c0.1,0,0.2,0.1,0.3,0.2
				c0.1,0.1,0.1,0.2,0.1,0.2c0.3,0.4,0.5,0.6,0.7,0.7c0.1,0.1,0.2,0.1,0.2,0.1c0,0,0,0.1,0,0.2c0,0.1-0.1,0.2-0.2,0.3
				c-0.3,0.1-0.6,0.4-0.8,0.8c-0.1,0.2-0.2,0.2-0.3,0.2c-0.1,0-0.2-0.1-0.3-0.2c-0.1-0.2-0.2-0.4-0.3-0.5s-0.3-0.2-0.5-0.3
				c-0.1-0.1-0.2-0.1-0.2-0.1S98.1,237,98.1,236.9z"/>
			<path class="st0" d="M108.2,237.9l-0.4,0c0-1-0.2-2.2-0.6-3.5c0.2,0,0.3-0.1,0.3-0.1c0.2,0.5,0.3,0.9,0.4,1.1
				c0.1,0.2,0.2,0.4,0.4,0.6c0.2,0.2,0.4,0.3,0.6,0.5c0.5,0.2,1,0.5,1.6,0.6c0.6,0.2,1.2,0.3,1.9,0.3c0.6,0,1.2-0.1,1.8-0.4
				c0.6-0.3,0.9-1,0.9-2c0-0.5-0.1-0.9-0.3-1.3c-0.2-0.4-0.4-0.7-0.7-0.9c-0.3-0.2-0.6-0.4-1-0.6c-0.4-0.2-0.9-0.4-1.5-0.6
				c-0.8-0.3-1.5-0.6-2.1-0.9c-0.5-0.3-1-0.7-1.3-1.2c-0.3-0.5-0.5-1-0.5-1.7c0-1.1,0.4-2,1.2-2.7c0.8-0.7,1.9-1.1,3.4-1.1
				c0.7,0,1.5,0.1,2.2,0.2c0.3,0.1,0.5,0.1,0.5,0.1c0.2,0,0.4-0.1,0.6-0.2l0.1,0c0.1,0,0.1,0,0.2,0c0,0.2,0,0.3-0.1,0.5
				c0,0.2,0,0.3-0.1,0.5c0,0.2,0,0.3,0,0.4c0,0.1,0,0.2,0,0.2c0.1,0.9,0.1,1.3,0.1,1.4l-0.3,0c-0.1-0.7-0.3-1.3-0.7-1.7
				s-0.9-0.7-1.4-0.8s-1-0.2-1.5-0.2c-1.2,0-1.9,0.3-2.3,0.9c-0.4,0.6-0.6,1.2-0.6,1.7c0,0.6,0.1,1,0.4,1.4s0.6,0.7,1.1,0.9
				c0.4,0.2,1,0.5,1.8,0.8c0.9,0.3,1.6,0.6,2.1,0.9s1,0.7,1.4,1.2c0.4,0.5,0.6,1.2,0.6,2c0,0.7-0.2,1.3-0.5,1.8s-0.9,1-1.6,1.3
				s-1.6,0.5-2.6,0.5c-1,0-2-0.1-3.1-0.4c-0.2,0-0.3-0.1-0.3-0.1C108.3,237.5,108.2,237.6,108.2,237.9z"/>
			<path class="st0" d="M118.2,236.9c0-0.1,0.1-0.2,0.3-0.3c0.3-0.2,0.6-0.5,0.8-0.9c0.1-0.1,0.2-0.2,0.3-0.2c0.1,0,0.2,0.1,0.3,0.2
				c0.1,0.1,0.1,0.2,0.1,0.2c0.3,0.4,0.5,0.6,0.7,0.7c0.1,0.1,0.2,0.1,0.2,0.1c0,0,0,0.1,0,0.2c0,0.1-0.1,0.2-0.2,0.3
				c-0.3,0.1-0.6,0.4-0.8,0.8c-0.1,0.2-0.2,0.2-0.3,0.2c-0.1,0-0.2-0.1-0.3-0.2c-0.1-0.2-0.2-0.4-0.3-0.5s-0.3-0.2-0.5-0.3
				c-0.1-0.1-0.2-0.1-0.2-0.1S118.2,237,118.2,236.9z"/>
			<path class="st0" d="M127.5,224.7l0-0.4c1.9,0,3.5-0.1,4.8-0.2c0.5-0.1,1-0.1,1.5-0.1c1.1,0,2.1,0.2,3,0.5c1,0.3,1.8,0.8,2.6,1.4
				s1.3,1.3,1.8,2.2s0.6,1.8,0.6,2.9c0,1.3-0.3,2.5-1,3.5c-0.7,1.1-1.6,1.9-2.8,2.5c-1.2,0.6-2.6,0.9-4.2,0.9c-0.1,0-0.4,0-0.8,0
				c-0.5,0-0.7,0-0.8,0c-0.3,0-0.5,0-0.7,0c-0.2,0-0.5,0-0.9,0s-0.8,0-1.2,0c-0.4,0-0.6,0-0.8,0l-1,0v-0.4c0.8,0,1.2-0.2,1.4-0.5
				c0.2-0.4,0.3-2.1,0.3-5.3c0-2.1,0-3.6-0.1-4.6s-0.1-1.7-0.3-1.9C128.5,224.8,128.1,224.7,127.5,224.7z M139.9,230.9
				c0-1.3-0.3-2.5-1-3.5c-0.6-1-1.4-1.7-2.4-2.2c-1-0.5-2-0.7-3-0.7c-1,0-1.9,0.2-2.8,0.6c-0.1,0.4-0.1,1.6-0.2,3.5
				c0,2-0.1,3.7-0.1,5.1c0,0.1,0,0.3,0,0.8c0,0.5,0,1,0,1.4c0,0.5,0,0.8,0,0.8c0.7,0.2,1.3,0.4,1.6,0.5s0.9,0.1,1.4,0.1
				c1.5,0,2.7-0.3,3.6-0.9s1.6-1.4,2-2.4S139.9,231.9,139.9,230.9z"/>
			<path class="st0" d="M141.7,236.9c0-0.1,0.1-0.2,0.3-0.3c0.3-0.2,0.6-0.5,0.8-0.9c0.1-0.1,0.2-0.2,0.3-0.2c0.1,0,0.2,0.1,0.3,0.2
				c0.1,0.1,0.1,0.2,0.1,0.2c0.3,0.4,0.5,0.6,0.7,0.7c0.1,0.1,0.2,0.1,0.2,0.1c0,0,0,0.1,0,0.2c0,0.1-0.1,0.2-0.2,0.3
				c-0.3,0.1-0.6,0.4-0.8,0.8c-0.1,0.2-0.2,0.2-0.3,0.2c-0.1,0-0.2-0.1-0.3-0.2c-0.1-0.2-0.2-0.4-0.3-0.5s-0.3-0.2-0.5-0.3
				c-0.1-0.1-0.2-0.1-0.2-0.1S141.7,237,141.7,236.9z"/>
			<path class="st0" d="M151.1,238v-0.3c0.5-0.2,0.9-0.3,1.1-0.3c0.2-0.1,0.3-0.2,0.3-0.4c0.1-0.4,0.2-2,0.2-4.9c0-0.4,0-0.9,0-1.5
				s0-0.9,0-1.2c0-0.3,0-0.7-0.1-1.3c0-0.4,0-0.9-0.1-1.5c0-0.6-0.1-1-0.1-1.2c0-0.2-0.1-0.3-0.1-0.4c-0.1-0.1-0.2-0.3-0.4-0.3
				c-0.2-0.1-0.5-0.1-0.9-0.1c0-0.1,0-0.3,0-0.4c0.6,0,1.2,0.1,2,0.1c0.2,0,0.6,0,1.2,0l0.7-0.1c0.2,0,0.4,0,0.7,0
				c1,0,1.9,0.1,2.6,0.4c0.7,0.3,1.4,0.6,1.9,1.1s0.9,0.9,1.1,1.5c0.2,0.5,0.4,1,0.4,1.5c0,0.8-0.2,1.5-0.7,2.2s-1.2,1.2-2.1,1.6
				c-0.9,0.4-2,0.6-3.2,0.6c-0.5,0-0.9,0-1.4-0.1c0,0.6,0,1.2,0,1.9c0,0.7,0,1.2,0,1.3c0,0.4,0.1,0.7,0.2,0.9s0.3,0.3,0.5,0.4
				c0.3,0.1,0.7,0.1,1.3,0.2l0,0.5c-0.3,0-0.6-0.1-1.1-0.1c-0.6,0-0.9,0-1.1,0c-0.8,0-1.4,0-1.8,0.1l-0.5,0.1
				C151.3,238.1,151.2,238,151.1,238z M154.1,224.8c0,0.1,0,0.4,0,1.1c0,0.7,0,1.2,0,1.7c0,0.4,0,0.9,0,1.4c0,0.5,0,0.8,0,0.9
				c0,0.7,0,1.4,0,2.3c0.6,0.2,1.2,0.2,1.7,0.2c0.6,0,1.2-0.1,1.8-0.3c0.6-0.2,1.1-0.6,1.5-1.2c0.4-0.6,0.6-1.3,0.6-2.2
				c0-0.7-0.2-1.4-0.5-2c-0.3-0.6-0.8-1.1-1.4-1.5c-0.6-0.4-1.4-0.6-2.2-0.6C155.1,224.6,154.6,224.6,154.1,224.8z"/>
			<path class="st0" d="M162.7,237.9l0-0.3c0.6-0.1,0.9-0.2,1-0.3c0-0.1,0.1-0.3,0.1-0.8c0-0.4,0.1-1,0.1-1.6c0-0.6,0-1,0-1
				c0-1,0-1.6,0-1.9s-0.1-0.5-0.2-0.6c0,0-0.2-0.1-0.5-0.1c-0.3,0-0.5-0.1-0.5-0.1c0-0.1,0.1-0.2,0.2-0.2c0.8-0.3,1.7-0.7,2.5-1.4
				c0,0,0.1,0,0.2,0c-0.1,0.3-0.1,0.7-0.2,1.3c0,0.6-0.1,1.1-0.1,1.8s0,1.2,0,1.6c0,0.4,0,0.9,0,1.5c0,0.7,0.1,1.1,0.1,1.3
				c0.1,0.1,0.1,0.2,0.2,0.2c0.1,0,0.3,0.1,0.5,0.1c0.2,0,0.5,0,0.7,0.1l0.1,0.3L162.7,237.9z M164.3,225.2c0-0.2,0.1-0.4,0.2-0.6
				c0.2-0.2,0.4-0.2,0.6-0.2c0.2,0,0.4,0.1,0.6,0.2c0.2,0.2,0.2,0.4,0.2,0.6s-0.1,0.4-0.2,0.6c-0.2,0.2-0.3,0.2-0.6,0.2
				c-0.2,0-0.4-0.1-0.6-0.2C164.4,225.6,164.3,225.4,164.3,225.2z"/>
			<path class="st0" d="M174.7,232.3l-5.3,1.1c0,0.7,0.1,1.2,0.2,1.5c0.1,0.4,0.3,0.7,0.6,1.1c0.5,0.7,1.2,1.1,2,1.1
				c0.3,0,0.7-0.1,1-0.2c0.4-0.1,0.8-0.3,1.2-0.6l0.2,0.3c-1.2,0.9-2.3,1.3-3.3,1.3c-1,0-1.8-0.4-2.4-1.1c-0.6-0.8-0.8-1.6-0.8-2.6
				c0-1,0.2-1.8,0.6-2.5c0.4-0.7,0.9-1.2,1.5-1.5s0.9-0.5,1.2-0.5c0.3,0,0.6,0.1,1,0.2c0.3,0.1,0.7,0.3,1,0.6
				c0.3,0.3,0.6,0.7,0.8,1.2c0.1,0.1,0.1,0.2,0.2,0.2s0.2,0.1,0.3,0.1L174.7,232.3z M169.4,233.1l1.4-0.3c0.1,0,0.3-0.1,0.6-0.2
				c0.4-0.1,0.6-0.1,0.7-0.2c0.4-0.1,0.6-0.1,0.7-0.2c0.1,0,0.1-0.1,0.1-0.2c0-0.1-0.1-0.3-0.3-0.6c-0.2-0.3-0.4-0.5-0.7-0.7
				c-0.3-0.2-0.7-0.3-1.1-0.3c-0.5,0-0.9,0.3-1.1,0.8S169.5,232.4,169.4,233.1z"/>
			<path class="st0" d="M176.7,234.8l0.1-4.1c-0.3,0-0.7-0.1-1.1-0.1c0-0.1,0-0.1,0-0.3c0.6-0.4,1.1-0.7,1.4-1.1
				c0.3-0.3,0.8-0.8,1.2-1.4l-0.1,1.9c0.6,0.1,1.3,0.1,2,0.1c0.3,0,0.7,0,1.1,0l0,0.7c-0.4,0-0.7,0.1-1.1,0.1c0,0-0.2,0-0.4,0
				c-0.2,0-0.6,0-1.1,0c-0.1,0-0.2,0-0.3,0c-0.1,0-0.1,0.1-0.1,0.1c0,0.1,0,0.2-0.1,0.4c0,0.2,0,0.4,0,0.6L178,235
				c0,0.6,0.1,1.2,0.2,1.6c0.2,0.4,0.5,0.6,1.2,0.6c0.2,0,0.5-0.1,0.9-0.2s0.7-0.3,1.2-0.5c0,0.1,0,0.1,0,0.1c0,0,0,0.1,0,0.1
				c-0.2,0.3-0.7,0.5-1.4,0.8c-0.7,0.3-1.3,0.4-1.8,0.4c-0.5,0-0.9-0.2-1.2-0.5c-0.3-0.3-0.5-0.9-0.5-1.6V234.8z"/>
			<path class="st0" d="M181.7,237.9v-0.3c0.3,0,0.6-0.1,0.7-0.2c0.2-0.1,0.3-0.2,0.3-0.3s0.1-0.3,0.2-0.6c0-0.5,0.1-1.3,0.1-2.4
				c0-1.1,0-2.1,0.1-3.2c0-1.1,0-1.9,0-2.5c0-1.6-0.1-2.6-0.2-3.1c-0.1-0.3-0.3-0.5-0.5-0.5c-0.1,0-0.2,0-0.4,0.1s-0.2,0.1-0.3,0.1
				l0-0.4c0.1,0,0.1-0.1,0.3-0.1c0.1-0.1,0.2-0.1,0.3-0.1c0.1,0,0.2-0.1,0.3-0.2c0.1-0.1,0.3-0.1,0.4-0.2c0.4-0.2,0.8-0.3,1-0.5
				c0.2-0.1,0.4-0.2,0.5-0.4h0.3c-0.1,0.3-0.1,0.7-0.2,1.4s-0.1,1.6-0.2,2.7c0,1.1-0.1,2-0.1,2.8c0,0.8,0,1.3,0,1.4l0,1.5
				c0.1,0,0.5-0.2,0.9-0.6c0.5-0.3,0.9-0.7,1.3-1s0.6-0.6,0.6-0.9c0-0.2-0.1-0.3-0.2-0.4c-0.1-0.1-0.3-0.1-0.6-0.1v-0.3l1,0
				c0.2,0,0.7,0,1.4,0c0.4,0,0.9,0,1.8,0l0,0.4c-0.4,0-0.9,0.1-1.3,0.3c-0.4,0.2-1,0.5-1.7,1l-1.8,1.2c0.2,0.2,1.1,1.1,2.8,2.7
				c0.8,0.8,1.4,1.4,1.8,1.6s0.7,0.4,1,0.4v0.4c-0.1,0-0.2,0-0.3,0s-0.2,0-0.3,0c-0.1,0-0.3,0-0.6,0h-0.8c-0.8,0-1.4,0-1.9,0.1v-0.4
				c0.1,0,0.2,0,0.4-0.1s0.3,0,0.4-0.1c0.1,0,0.1-0.1,0.1-0.1c0-0.1-0.1-0.2-0.3-0.5c-0.2-0.3-0.4-0.5-0.6-0.6
				c-0.6-0.6-1.1-1.1-1.6-1.6l-0.7-0.6c0-0.1-0.2-0.2-0.3-0.3c-0.2-0.1-0.3-0.2-0.3-0.2c-0.1,0-0.2,0.1-0.2,0.4v1.1
				c0,0.7,0,1.1,0,1.4s0,0.5,0.1,0.6s0.1,0.2,0.2,0.3c0.2,0.1,0.5,0.1,1,0.2l0,0.4c-0.4-0.1-0.8-0.1-1.3-0.1
				C183.5,237.8,182.7,237.8,181.7,237.9z"/>
			<path class="st0" d="M194,231.6l-1.3,0.6c-0.1-0.2-0.1-0.4-0.1-0.5c0-0.4,0.2-0.7,0.7-1c0.4-0.3,0.9-0.6,1.5-0.7
				c0.6-0.2,0.9-0.3,1.2-0.3c0.2,0,0.4,0.1,0.7,0.3c0.3,0.2,0.5,0.3,0.7,0.5c0.1,0.1,0.3,0.3,0.3,0.4s0.2,0.4,0.2,0.7
				c0.1,0.3,0.1,0.7,0.1,1.1c0,0.1,0,0.6-0.1,1.4l0,0.8c0,0.4,0,0.7,0,0.9c0,0.3,0,0.6,0.1,0.9c0.1,0.3,0.2,0.5,0.5,0.5
				c0.3,0,0.6-0.1,1.1-0.3v0.4l-1.6,0.6c-0.3,0.1-0.5,0.2-0.5,0.2c-0.2,0-0.3-0.1-0.5-0.3c-0.2-0.2-0.3-0.5-0.4-0.8
				c-1.3,0.7-2.3,1.1-3,1.1c-0.4,0-0.8-0.1-1-0.4c-0.2-0.3-0.3-0.6-0.3-1.1c0-0.5,0.1-0.8,0.2-1.1c0.1-0.2,0.3-0.4,0.6-0.6
				c0.5-0.3,1.1-0.5,1.7-0.6s1.2-0.2,1.9-0.3l0.1-1.3v-0.3c0-0.6-0.2-1.1-0.5-1.4s-0.7-0.5-1.2-0.5c-0.2,0-0.4,0.1-0.7,0.2
				c-0.2,0.1-0.3,0.3-0.3,0.5C193.9,231.2,193.9,231.4,194,231.6z M196.5,236.6c0-0.2,0-0.9,0.1-2c-0.9-0.1-1.7,0-2.2,0.3
				c-0.6,0.3-0.8,0.7-0.8,1.1c0,0.3,0.1,0.6,0.3,0.9s0.4,0.4,0.7,0.4C194.8,237.4,195.5,237.1,196.5,236.6z"/>
		</g>
		<path class="st0" d="M174.7,238l0.5,0.9c0,0-2.2,0.5-2.7-1.4c0.2,0,0.3,0,0.3,0S173.3,238.8,174.7,238z"/>
	</g>
	<path class="st1" d="M139.5,217.9C139.5,217.8,139.5,217.8,139.5,217.9c-0.1-0.4-0.2-0.6-0.3-0.9c-1.9-4.6-8-3-12.2,0.1
		c-3.3,2.4-5.4,2.2-6.4,1.9h0h0c-1.1-0.3-2.1-1.1-2-2c0.1-0.9,1.6-1.9,0.3-2.4c-0.1,0-0.1,0-0.2-0.1c0,0,0,0-0.1,0
		c-0.1,0-0.2,0-0.3-0.1c-1.7-0.3-3.3,0.9-3.5,2.6c-0.2,1.5,0.6,2.8,1.9,3.4h0c0,0,0,0,0,0c0.2,0.1,0.4,0.1,0.6,0.2c0,0,0,0,0,0
		c4.4,1.1,8-1.5,10.8-3.6c2.2-1.6,3.8-2.2,5.2-2.3c1.8-0.2,2.8,0.4,3.4,1.1c0.9,1.1,0.7,2.3,0.1,2.6c-0.6,0.3-1.1,0-1.6,0
		c-0.5,0.1-0.7,0.5-0.5,1c0.4,0.7,1,1.2,1.8,1.3c1.4,0.2,2.6-0.7,2.8-2.1C139.5,218.3,139.5,218.1,139.5,217.9L139.5,217.9z
		 M165.4,217c-0.3-1.7-1.9-2.9-3.5-2.6c-0.1,0-0.2,0-0.3,0.1c0,0,0,0-0.1,0c-0.1,0-0.1,0-0.2,0.1c-1.3,0.5,0.2,1.5,0.3,2.4
		c0.1,0.9-0.9,1.7-2,2h0h0c-0.9,0.3-3.1,0.5-6.4-1.9c-4.2-3.1-10.3-4.7-12.2-0.1c-0.1,0.3-0.2,0.5-0.3,0.8c0,0,0,0,0,0.1l0,0
		c0,0.2,0,0.5,0,0.7c0.2,1.4,1.5,2.3,2.8,2.1c0.8-0.1,1.5-0.6,1.8-1.3c0.2-0.5,0-0.9-0.5-1c-0.5-0.1-1,0.3-1.6,0
		c-0.6-0.3-0.8-1.5,0.1-2.6c0.6-0.7,1.6-1.3,3.4-1.1c1.4,0.2,3.1,0.7,5.2,2.3c2.8,2.1,6.3,4.7,10.8,3.6c0,0,0,0,0,0
		c0.2,0,0.4-0.1,0.6-0.2l0,0h0C164.8,219.8,165.6,218.5,165.4,217z"/>
</g>
</svg>
