<?xml version="1.0" encoding="utf-8"?>
<!-- Generator: Adobe Illustrator 23.0.3, SVG Export Plug-In . SVG Version: 6.00 Build 0)  -->
<svg version="1.1" id="Layer_1" xmlns="http://www.w3.org/2000/svg" xmlns:xlink="http://www.w3.org/1999/xlink" x="0px" y="0px"
	 viewBox="0 0 84.2 114.9" style="enable-background:new 0 0 84.2 114.9;" xml:space="preserve">
<style type="text/css">
	.st0{fill:#F4A298;}
</style>
<g>
	<path class="st0" d="M84.2,50.6c0-8.2-1.8-10.8-9.5-13.6c-6.1-2.2-12.5-3-18.8-3.9c-1.6-0.2-2.6-0.5-3.4-2.1
		c-2.4-4.7-5.2-4.9-7.9-0.4c-0.9,1.5-1.7,1.8-3.1,1.6c-1.7-0.3-1.2-1.7-1.3-2.8c-0.2-2,0.1-3.9-0.7-5.9c-1-2.4-2.8-2.6-4.8-2.4
		c-2.4,0.2-2.3,2-2.3,3.7c0,1.5-0.2,3,0,4.5c0.3,2.7-0.6,3.7-3.5,3.9c-6.6,0.4-13.1,1.6-19.5,3.6C4.3,38.4,0,40.8,0,47.1
		C0,64.7,0,82.3,0,100l0,0l0,0c0.6,2.5,0.6,5.2,3.1,7c3.8,2.6,8.1,3.7,12.4,5c8,2.4,16.2,1.6,24.3,2.8c2.5,0.4,6-0.7,6.2-4.3
		c0.2-3.5-2.3-4.4-5.4-4.3c-7.3,0.2-14.5-0.8-21.7-2.1c-10.1-1.8-10.8-2.6-10.8-12.6c0-2.2,0.1-4.3,0-6.5c-0.1-2.7,0.6-3.4,3.5-2.7
		c5.7,1.5,11.5,3.4,17.3,3.5c15.2,0.5,30.4,0.5,45.2-3.8c2.6-1.4,1.8,0.9,1.8,1.8c0.1,5.4,0,10.8,0,16.1l0,0l0,0
		c0.9,2.7,2.9,3.7,5.5,2.9c2.3-0.8,2.8-2.9,2.8-5.3C84.1,81.8,84.1,66.2,84.2,50.6z M30.6,41c2.2-0.3,1.6,1.7,1.6,2.9
		c-0.1,2.9,0.3,5.7,3.9,5.6c3.1-0.1,4-2.5,4-5.3c0-1.9-0.2-3.7,2.7-3.5c2.6,0.2,2.1,2,2.2,3.6c0.1,3.1-0.6,6.7,4.2,6.9
		c4-0.9,3.6-4.2,3.7-7.1c0.1-1.4-0.5-3.2,2.1-2.9c6.7,1,13.5,1.5,20.4,5.2c-8.7,4.2-17.4,5-26.1,5.4C35.8,52.6,22.5,52,8.7,46.7
		C16,42.2,23.4,42.1,30.6,41z M76,60c0,0.3,0,0.7,0,1c0,12.4-0.3,12.8-12.5,14.9c-7.2,1.2-14.5,1.8-22.6,1.8
		c-8.8-0.4-18.4-0.9-27.7-3.7c-3.7-1.1-5.6-3-5.1-7.1c0.4-3.4-1.1-8.1,0.7-10.1c2.1-2.3,6.2,0.9,9.5,1.4c17.9,2.9,35.7,3.1,53.4-1.5
		C75.5,55.7,76.5,56.4,76,60z"/>
	<path class="st0" d="M49.7,22.7L49.7,22.7c-1.9,0-3.4-1.5-3.4-3.4V8.7c0-1.9,1.5-3.4,3.4-3.4l0,0c1.9,0,3.4,1.5,3.4,3.4v10.5
		C53.1,21.1,51.6,22.7,49.7,22.7z"/>
	<path class="st0" d="M36.1,17.3L36.1,17.3c-1.9,0-3.4-1.5-3.4-3.4V3.4c0-1.9,1.5-3.4,3.4-3.4l0,0c1.9,0,3.4,1.5,3.4,3.4v10.5
		C39.5,15.8,38,17.3,36.1,17.3z"/>
</g>
</svg>
