<?xml version="1.0" encoding="utf-8"?>
<!-- Generator: Adobe Illustrator 23.0.3, SVG Export Plug-In . SVG Version: 6.00 Build 0)  -->
<svg version="1.1" id="Tryb_izolacji" xmlns="http://www.w3.org/2000/svg" xmlns:xlink="http://www.w3.org/1999/xlink" x="0px"
	 y="0px" viewBox="0 0 98.7 116.3" style="enable-background:new 0 0 98.7 116.3;" xml:space="preserve">
<style type="text/css">
	.st0{fill:#FFA397;}
</style>
<g>
	<path class="st0" d="M95.2,69.1c-1.8-2.1-1.9-4-1.3-6.4c0-1.6,0-3.3,0-4.9c-2.6-14.4-15.5-23.3-29.7-18.7c-5.1,1.7-7.7,0-10.6-3.2
		c-1.5-4-0.3-8.1-0.7-12.1l0,0l0,0c-1.3-2-3-3-5.4-2.2c-2.7,0.9-1.5,3.3-1.7,5.1c-0.1,0.8-0.1,1.7,0,2.5c0.4,3.2-0.3,4.7-4.1,4.8
		c-7.5,0.4-12.7,4.7-15.5,11.5c-0.9,2.2-2.1,3-4.3,3.3c-6.8,0.9-11.7,4.3-14.8,10.7c-1.3,2.6-0.4,5.5-2.5,7.8
		c-8.6,9.3-4.1,20.3,5.6,24.1c1.7,0.7,1.6,1.9,2.1,3c2.3,6.1,4.5,12.3,6.8,18.5c0.8,2.2,1.8,4.1,4.9,2.9c2.7-1.1,4.2-2.3,2.9-5.5
		c-2-5-3.7-10.2-5.6-15.3c-0.4-1.1-1.2-2.1,0-3c1.8-1.5,7.3,0.3,8.2,2.6c2.1,5.7,4.5,11.3,6.2,17.1c1,3.6,3,4.9,6.1,3.7
		c3-1.1,3.1-3.7,1.9-6.6c-2.2-5.4-4.1-11-6.2-16.7c7.8,0,14.9,0,22.5,0c-2.2,6-4.1,11.6-6.2,17.1c-1.1,2.8-1.2,5.5,1.7,6.7
		c3.1,1.3,5-0.9,6.1-3.7c1.9-5.1,4-10.1,5.5-15.3c1.1-4,3.2-5.4,7.3-5.1c2.9,0.2,3.9,0.6,2.7,3.6c-1.8,4.4-3.3,9-5.2,13.4
		c-1.3,2.9-1.4,5.8,1.5,7.1c3.2,1.4,5.3-0.7,6.4-3.9c1.9-5.6,4.1-11.1,6.1-16.7c0.7-2.1,2-3.3,4.1-4.3C99,86.6,101.5,76.8,95.2,69.1
		z M27.1,57.3c3.5,0.8,5.2-0.6,5.8-4.2c1.3-7.1,5.7-11.1,11.4-11s9.8,4,11,10.9c0.5,2.7,1.6,4.5,4.4,4.4c3.1-0.2,4.2-2.5,3.8-5.3
		c-0.6-3.6,1.4-4.6,4.3-5.4c9.1-2.4,18.4,4.9,18,14.1c-0.1,1.8-0.2,3.4-2.7,3.2c-0.8-0.1-1.7,0-2.5,0c-21.7,0-43.5,0-66.2,0
		C17.9,58.6,21.5,56,27.1,57.3z M83.1,83.8c-11.3-0.1-22.7,0-34,0c-11,0-22-0.1-33,0c-4,0-7-1.1-7.5-5.5c-0.5-3.7,2.5-6.3,7.3-6.3
		c22.5-0.1,45,0,67.5,0c4,0,7.2,1.9,7,6C90.3,82.2,87.2,83.9,83.1,83.8z"/>
	<path class="st0" d="M49.1,17.3L49.1,17.3c-1.9,0-3.4-1.5-3.4-3.4V3.4c0-1.9,1.5-3.4,3.4-3.4l0,0c1.9,0,3.4,1.5,3.4,3.4v10.5
		C52.5,15.8,51,17.3,49.1,17.3z"/>
</g>
</svg>
