<?xml version="1.0" encoding="utf-8"?>
<!-- Generator: Adobe Illustrator 22.1.0, SVG Export Plug-In . SVG Version: 6.00 Build 0)  -->
<svg version="1.1" id="Warstwa_1" xmlns="http://www.w3.org/2000/svg" xmlns:xlink="http://www.w3.org/1999/xlink" x="0px" y="0px"
	 viewBox="0 0 213.3 64.7" style="enable-background:new 0 0 213.3 64.7;" xml:space="preserve">
<style type="text/css">
	.st0{fill:#F04E54;}
	.st1{fill-rule:evenodd;clip-rule:evenodd;fill:#2C1E53;}
</style>
<g>
	<g>
		<path class="st0" d="M37.3,13.7c0,0.9-0.7,1.6-1.6,1.6c-0.9,0-1.6-0.7-1.6-1.6c0-0.9,0.7-1.6,1.6-1.6
			C36.6,12.1,37.3,12.8,37.3,13.7"/>
		<path class="st0" d="M37.3,32.3c0,0.9-0.7,1.6-1.6,1.6c-0.9,0-1.6-0.7-1.6-1.6c0-0.9,0.7-1.6,1.6-1.6
			C36.6,30.8,37.3,31.5,37.3,32.3"/>
		<path class="st0" d="M37.3,23c0,0.9-0.7,1.6-1.6,1.6c-0.9,0-1.6-0.7-1.6-1.6c0-0.9,0.7-1.6,1.6-1.6C36.6,21.5,37.3,22.2,37.3,23"
			/>
		<path class="st0" d="M28.3,21.2c0,2.1-1.7,3.8-3.8,3.8c-2.1,0-3.8-1.7-3.8-3.8c0-2.1,1.7-3.8,3.8-3.8
			C26.6,17.4,28.3,19.1,28.3,21.2"/>
		<path class="st0" d="M21.6,11.7c0,3.6-2.9,6.5-6.5,6.5c-3.6,0-6.5-2.9-6.5-6.5c0-3.6,2.9-6.5,6.5-6.5C18.7,5.3,21.6,8.2,21.6,11.7
			"/>
		<path class="st0" d="M34.2,32.3c0,0.9,0.7,1.6,1.6,1.6c0.9,0,1.6-0.7,1.6-1.6c0-0.9-0.7-1.6-1.6-1.6
			C34.9,30.8,34.2,31.5,34.2,32.3"/>
		<path class="st0" d="M34.2,32.3c0,0.9,0.7,1.6,1.6,1.6c0.9,0,1.6-0.7,1.6-1.6c0-0.9-0.7-1.6-1.6-1.6
			C34.9,30.8,34.2,31.5,34.2,32.3"/>
		<path class="st0" d="M43.1,21.2c0,2.1,1.7,3.8,3.8,3.8c2.1,0,3.8-1.7,3.8-3.8c0-2.1-1.7-3.8-3.8-3.8
			C44.8,17.4,43.1,19.1,43.1,21.2"/>
		<path class="st0" d="M49.8,11.7c0,3.6,2.9,6.5,6.5,6.5c3.6,0,6.5-2.9,6.5-6.5c0-3.6-2.9-6.5-6.5-6.5C52.7,5.3,49.8,8.2,49.8,11.7"
			/>
		<path class="st0" d="M34.2,51c0-0.9,0.7-1.6,1.6-1.6c0.9,0,1.6,0.7,1.6,1.6c0,0.9-0.7,1.6-1.6,1.6C34.9,52.6,34.2,51.9,34.2,51"/>
		<path class="st0" d="M34.2,32.3c0-0.9,0.7-1.6,1.6-1.6c0.9,0,1.6,0.7,1.6,1.6c0,0.9-0.7,1.6-1.6,1.6
			C34.9,33.9,34.2,33.2,34.2,32.3"/>
		<path class="st0" d="M34.2,41.7c0-0.9,0.7-1.6,1.6-1.6c0.9,0,1.6,0.7,1.6,1.6c0,0.9-0.7,1.6-1.6,1.6
			C34.9,43.2,34.2,42.5,34.2,41.7"/>
		<path class="st0" d="M43.1,43.5c0-2.1,1.7-3.8,3.8-3.8c2.1,0,3.8,1.7,3.8,3.8c0,2.1-1.7,3.8-3.8,3.8
			C44.8,47.3,43.1,45.6,43.1,43.5"/>
		<path class="st0" d="M49.8,52.9c0-3.6,2.9-6.5,6.5-6.5c3.6,0,6.5,2.9,6.5,6.5c0,3.6-2.9,6.5-6.5,6.5
			C52.7,59.4,49.8,56.5,49.8,52.9"/>
		<path class="st0" d="M37.3,32.3c0-0.9-0.7-1.6-1.6-1.6c-0.9,0-1.6,0.7-1.6,1.6c0,0.9,0.7,1.6,1.6,1.6
			C36.6,33.9,37.3,33.2,37.3,32.3"/>
		<path class="st0" d="M28.3,43.5c0-2.1-1.7-3.8-3.8-3.8c-2.1,0-3.8,1.7-3.8,3.8c0,2.1,1.7,3.8,3.8,3.8
			C26.6,47.3,28.3,45.6,28.3,43.5"/>
		<path class="st0" d="M21.6,52.9c0-3.6-2.9-6.5-6.5-6.5c-3.6,0-6.5,2.9-6.5,6.5c0,3.6,2.9,6.5,6.5,6.5
			C18.7,59.4,21.6,56.5,21.6,52.9"/>
	</g>
	<g>
		<path class="st1" d="M96.8,22.1c-0.6-0.5-0.8-0.7-0.2-1.5c2.1-2.5,1.9-5.1,0.4-7.9c0.3,0,0.5-0.1,0.7-0.1c0.9,0.1,1.8,0,1.8-1.2
			c-0.1-1.2-1-1.1-1.9-1.1c-1.7,0-3.4,0-5.1-0.3c-2-0.4-3.9,0-5.5,1.3c-2.3,1.9-3.1,5-2,7.6c1.2,2.9,3.7,4.4,7.5,4
			c1.5-0.1,2.5,0.1,2.8,1.7c0.2,1.4-0.6,2.3-2,2.7c-2.2,0.7-4.3,0.2-6.2-0.8c-1.2-0.6-1.1,0.4-1.4,0.9c-0.4,0.5-0.6,1,0.3,1.3
			c3.3,1.4,6.7,1.9,10,0.2C98.6,27.5,99.1,24.3,96.8,22.1z M91.3,20.9c-2.3,0-4-1.9-4-4.4c0-2.5,1.7-4.5,4-4.5c2.4,0,4,1.8,4,4.4
			C95.2,19.1,93.6,20.9,91.3,20.9z"/>
		<path class="st1" d="M133.3,29.7c0.9,0,1.5,0,1.4-1.2c-0.1-1.8,0-3.5,0-5.6c0.7,0.4,1.1,0.6,1.5,0.9c2.9,1.4,6.7,0.4,8.4-2.2
			c2.8-4.4,0.3-10.6-4.9-11.5c-2.2-0.4-4.4-0.2-6.6,0.5c-0.8,0.3-1.3,0.6-1.3,1.6c0.1,5.4,0.1,10.9,0,16.3
			C131.8,29.7,132.4,29.7,133.3,29.7z M135.4,12.5c1.8-0.6,3.9-0.7,5.6,0.7c1.6,1.4,2.2,4.4,1.2,6.5c-0.8,1.8-2.3,2.4-4.6,2.1
			c-2-0.3-2.9-1.4-3-3.4c0-0.7,0-1.4,0-2.2c0-0.1,0-0.3,0-0.4C135,14.7,133.8,13.1,135.4,12.5z"/>
		<path class="st1" d="M161.5,20.5c0-0.5,0-0.9,0-1.4c0-1.3,0-2.6,0-3.9c-0.1-2.1-1-3.7-2.9-4.5c-2.2-1-4.6-1-6.9-0.4
			c-1.1,0.3-1.9,0.8-1.5,2.1c0.5,1.5,1.3,0.3,2,0.1c2.6-0.9,5.3-0.4,6.2,1.4c0.5,1,0.8,1.9-1,1.7c-1.9-0.2-3.8-0.2-5.7,0.4
			c-2,0.6-3,2.1-2.9,4.4c0.1,2.1,1.1,3.3,3.2,3.9c1.9,0.5,3.8,0.4,5.7,0.4C161.5,24.4,161.5,24.4,161.5,20.5z M158.7,19.7
			c0,2.8,0,2.8-2.7,2.9c-1,0-1.9,0-2.9-0.3c-1.1-0.4-1.5-1.1-1.5-2.2c0-1.1,0.4-1.8,1.5-2.2c1.6-0.6,3.3-0.4,4.9-0.2
			C159.4,17.7,158.4,19.1,158.7,19.7z"/>
		<path class="st1" d="M127.2,17.4c0-1.8,0-3.5,0-5.3c0-0.9,0.3-1.9-1.2-1.8c-1.4,0-1.6,0.8-1.6,1.9c0,2.8,0,5.6,0,8.5
			c0,0.5,0.2,1-0.4,1.4c-2.6,1.3-6.5-0.9-6.6-3.7c-0.1-2.2,0-4.3,0-6.5c0-0.8,0.1-1.6-1.2-1.5c-1.1,0-1.7,0.4-1.7,1.6
			c0,2.4,0,4.7,0.1,7.1c0.1,2.7,1.7,4.5,4.3,5.1c1.9,0.5,3.8,0.5,5.7,0.3c2.7-0.2,2.7-0.2,2.7-2.9C127.2,20.2,127.2,18.8,127.2,17.4
			z"/>
		<path class="st1" d="M110.3,12.5c0.6,0.2,1.2,0.6,1.4-0.3c0.3-0.8,0.1-1.4-0.7-1.8c-1.5-0.9-6.9-0.2-8.1,1c-0.4,0.4-0.3,1-0.3,1.5
			c0,1.6,0,3.3,0,4.9c0,1.8,0.1,3.5,0,5.3c-0.1,1.2,0.6,1.2,1.4,1.2c0.9,0,1.5,0,1.4-1.2c-0.1-2.4,0-4.7,0-7.1c0-3.4,0.7-4,4.1-3.6
			C109.8,12.3,110.1,12.4,110.3,12.5z"/>
		<path class="st1" d="M186,36.1c0-0.9,0.3-2-1.2-1.9c-1.2,0.1-1.7,0.7-1.6,1.9c0.1,2,0,3.9,0,6.2c-1.3-1.2-2.5-1.9-3.9-2
			c-4.9-0.3-8.1,3.8-7,8.9c0.7,3.4,3.2,4.8,6.2,5.7c2.1,0,4.2,0,6.3,0c1.1-0.3,1.2-1.1,1.2-2.1C186,47.2,186,41.6,186,36.1z
			 M179.2,52.5c-2.8-0.4-4.3-2.7-3.9-6c0.3-2.7,1.9-4.1,4.4-3.9c1.9,0.2,3.3,1.6,3.5,3.8c0.1,0.9,0,1.8,0,2.8
			C183.2,52.9,183,53,179.2,52.5z"/>
		<path class="st1" d="M156.4,46.2c0-3.3-1.5-5.1-4.7-5.8c-1.9-0.4-3.8-0.4-5.6,0.3c-0.9,0.3-1.4,1-1,2c0.4,1.2,1.1,0.4,1.7,0.1
			c0.9-0.4,1.9-0.6,2.9-0.6c1.5,0.1,3,0.4,3.7,2c0.5,1,0.4,1.6-1,1.5c-1.9-0.1-3.8-0.2-5.7,0.4c-2,0.6-2.9,1.9-3.1,4
			c-0.2,2.9,1.9,3.8,4.1,4.6c2.2,0,4.5,0,6.7,0c1.8-0.2,2.1-1.3,2-3C156.3,50,156.4,48.1,156.4,46.2z M153.5,52.3
			c0,0.4-0.6,0.5-1,0.5c-1.3,0.2-2.6,0.3-3.9,0c-1.2-0.3-2.1-0.8-2.2-2.3c0-1.6,0.9-2.2,2.2-2.5c0.7-0.2,1.4-0.1,2.1-0.1
			c0.9,0.2,2.3-0.3,2.6,0.5C153.9,49.5,153.6,50.9,153.5,52.3z"/>
		<path class="st1" d="M103.4,41.1c-3.6-2.1-8.4-0.6-10.1,3.3c-2,4.4-0.4,8.2,4.4,10.6c1.6,0,3.2,0,4.7,0c0.3-0.6,1-0.4,1.6-0.6
			c0.8-0.3,1-0.7,0.7-1.4c-0.3-1-0.8-1-1.7-0.7c-3.1,1-5.8,0.3-6.9-1.6c-0.6-1-0.7-1.7,0.9-1.6c1.5,0.1,3,0,4.5,0
			c2.7,0,3.8-0.7,4.3-2.5C106.3,44.5,105.2,42.1,103.4,41.1z M103.1,45.6c-0.2,1.4-1.4,1.3-2.5,1.3c-1.7,0-3.4,0-5.2,0
			c0.8-3.9,3.2-5.5,6-4.3C102.7,43.2,103.3,44.3,103.1,45.6z"/>
		<path class="st1" d="M116.6,40.3c-3.9-0.1-6.5,1.7-7.6,5.1c-1.2,4.1,0.6,7.4,5.2,9.5c1.3,0,2.6,0,3.9,0c0.3-0.6,1-0.5,1.5-0.8
			c2.9-1.6,4.4-5.1,3.6-8.4C122.4,42.6,119.7,40.4,116.6,40.3z M116,52.5c-2.7,0-4.5-2.1-4.4-5.1c0.1-3,1.8-4.9,4.5-4.8
			c2.6,0,4.4,2,4.4,4.9C120.5,50.6,118.7,52.6,116,52.5z"/>
		<path class="st1" d="M204.5,45.7c-0.8-3.1-3.5-5.3-6.6-5.4c-3.9-0.1-6.5,1.7-7.6,5.1c-1.2,4.1,0.6,7.4,5.2,9.5c1.3,0,2.6,0,3.9,0
			c0.3-0.6,1-0.5,1.5-0.8C203.8,52.5,205.3,49,204.5,45.7z M197.3,52.5c-2.7,0-4.5-2.1-4.4-5.1c0.1-3,1.8-4.9,4.5-4.9
			c2.6,0,4.4,2,4.4,4.9C201.8,50.6,200,52.6,197.3,52.5z"/>
		<path class="st1" d="M140.1,45.9c-0.3-3.6-2.3-5.5-6-5.7c-1.7-0.1-3.4,0.1-5.1,0.4c-1.3,0.3-2.1,0.8-1.9,2.4c0.2,1.6,0,3.3,0,4.9
			c0,1.7,0.1,3.4,0,5.1c-0.1,1.1,0.3,1.5,1.4,1.4c1.1,0,1.5-0.2,1.5-1.4c-0.1-2.9,0-5.8,0-8.7c0-0.5-0.3-1.1,0.5-1.5
			c3.2-1.7,6.5,0,6.7,3.6c0.1,2.2,0.1,4.5,0,6.7c0,1.2,0.5,1.3,1.4,1.2c0.8-0.1,1.6,0.2,1.5-1.1C140.1,50.9,140.3,48.4,140.1,45.9z"
			/>
		<path class="st1" d="M87,34.1c-1.1,0-1.6,0.6-1.6,1.8c0,5.8,0,11.6,0,17.4c0,1.1,0.5,1.3,1.4,1.3c0.9,0,1.6,0.1,1.6-1.3
			c-0.1-3,0-5.9,0-8.9c0-2.8-0.1-5.7,0-8.5C88.5,34.8,88.3,34.1,87,34.1z"/>
		<path class="st1" d="M168.8,40.4c-1.8-0.3-3.5-0.2-5.2,0.3c-1.7,0.5-2.8,1.2-2.5,3.3c0.2,1.3,0,2.7,0,4.1c0,1.7,0.1,3.4,0,5.1
			c-0.1,1.2,0.5,1.3,1.5,1.4c1.2,0,1.4-0.4,1.4-1.4c-0.1-2.4,0-4.8,0-7.3c0-3,0.3-3.2,3.3-3.2c0.4,0,0.8,0,1.2,0.1
			c0.7,0.1,1.5,0.9,1.8-0.4C170.5,41,169.7,40.6,168.8,40.4z"/>
	</g>
</g>
</svg>
