<?xml version="1.0" encoding="utf-8"?>
<!-- Generator: Adobe Illustrator 23.0.3, SVG Export Plug-In . SVG Version: 6.00 Build 0)  -->
<svg version="1.1" id="Tryb_izolacji" xmlns="http://www.w3.org/2000/svg" xmlns:xlink="http://www.w3.org/1999/xlink" x="0px"
	 y="0px" viewBox="0 0 326.5 116.3" style="enable-background:new 0 0 326.5 116.3;" xml:space="preserve">
<style type="text/css">
	.st0{fill:#FF8F81;}
	.st1{fill:#FFA397;}
	.st2{fill:#FFACA1;}
</style>
<g>
	<path class="st0" d="M84.2,51.4c0-8.2-1.8-10.8-9.5-13.6c-6.1-2.2-12.5-3-18.8-3.9c-1.6-0.2-2.6-0.5-3.4-2.1
		c-2.4-4.7-5.2-4.9-7.9-0.4c-0.9,1.5-1.7,1.8-3.1,1.6c-1.7-0.3-1.2-1.7-1.3-2.8c-0.2-2,0.1-3.9-0.7-5.9c-1-2.4-2.8-2.6-4.8-2.4
		c-2.4,0.2-2.3,2-2.3,3.7c0,1.5-0.2,3,0,4.5c0.3,2.7-0.6,3.7-3.5,3.9c-6.6,0.4-13.1,1.6-19.5,3.6C4.3,39.1,0,41.5,0,47.8
		c0,17.6,0,35.2,0,52.9c0,0,0,0,0,0c0,0,0,0,0,0c0.6,2.5,0.6,5.2,3.1,7c3.8,2.6,8.1,3.7,12.4,5c8,2.4,16.2,1.6,24.3,2.8
		c2.5,0.4,6-0.7,6.2-4.3c0.2-3.5-2.3-4.4-5.4-4.3c-7.3,0.2-14.5-0.8-21.7-2.1c-10.1-1.8-10.8-2.6-10.8-12.6c0-2.2,0.1-4.3,0-6.5
		C8.1,83,8.8,82.2,11.7,83c5.7,1.5,11.5,3.4,17.3,3.5c15.2,0.5,30.4,0.5,45.2-3.8c2.6-1.4,1.8,0.9,1.8,1.8c0.1,5.4,0,10.8,0,16.1
		c0,0,0,0,0,0c0,0,0,0,0,0c0.9,2.7,2.9,3.7,5.5,2.9c2.3-0.8,2.8-2.9,2.8-5.3C84.2,82.6,84.2,67,84.2,51.4z M30.7,41.8
		c2.2-0.3,1.6,1.7,1.6,2.9c-0.1,2.9,0.3,5.7,3.9,5.6c3.1-0.1,4-2.5,4-5.3c0-1.9-0.2-3.7,2.7-3.5c2.6,0.2,2.1,2,2.2,3.6
		c0.1,3.1-0.6,6.7,4.2,6.9c4-0.9,3.6-4.2,3.7-7.1c0.1-1.4-0.5-3.2,2.1-2.9c6.7,1,13.5,1.5,20.4,5.2c-8.7,4.2-17.4,5-26.1,5.4
		c-13.5,0.8-26.8,0.2-40.6-5.1C16,43,23.5,42.9,30.7,41.8z M76.1,60.8c0,0.3,0,0.7,0,1c0,12.4-0.3,12.8-12.5,14.9
		c-7.2,1.2-14.5,1.8-22.6,1.8c-8.8-0.4-18.4-0.9-27.7-3.7c-3.7-1.1-5.6-3-5.1-7.1c0.4-3.4-1.1-8.1,0.7-10.1c2.1-2.3,6.2,0.9,9.5,1.4
		c17.9,2.9,35.7,3.1,53.4-1.5C75.5,56.5,76.6,57.2,76.1,60.8z"/>
	<path class="st0" d="M49.8,23.5L49.8,23.5c-1.9,0-3.4-1.5-3.4-3.4V9.5c0-1.9,1.5-3.4,3.4-3.4h0c1.9,0,3.4,1.5,3.4,3.4v10.5
		C53.2,21.9,51.7,23.5,49.8,23.5z"/>
	<path class="st0" d="M36.2,18.1L36.2,18.1c-1.9,0-3.4-1.5-3.4-3.4V4.2c0-1.9,1.5-3.4,3.4-3.4h0c1.9,0,3.4,1.5,3.4,3.4v10.5
		C39.6,16.6,38.1,18.1,36.2,18.1z"/>
</g>
<g>
	<path class="st1" d="M208.9,69.1c-1.8-2.1-1.9-4-1.3-6.4c0-1.6,0-3.3,0-4.9c-2.6-14.4-15.5-23.3-29.7-18.7c-5.1,1.7-7.7,0-10.6-3.2
		c-1.5-4-0.3-8.1-0.7-12.1c0,0,0,0,0,0c0,0,0,0,0,0c-1.3-2-3-3-5.4-2.2c-2.7,0.9-1.5,3.3-1.7,5.1c-0.1,0.8-0.1,1.7,0,2.5
		c0.4,3.2-0.3,4.7-4.1,4.8c-7.5,0.4-12.7,4.7-15.5,11.5c-0.9,2.2-2.1,3-4.3,3.3c-6.8,0.9-11.7,4.3-14.8,10.7
		c-1.3,2.6-0.4,5.5-2.5,7.8c-8.6,9.3-4.1,20.3,5.6,24.1c1.7,0.7,1.6,1.9,2.1,3c2.3,6.1,4.5,12.3,6.8,18.5c0.8,2.2,1.8,4.1,4.9,2.9
		c2.7-1.1,4.2-2.3,2.9-5.5c-2-5-3.7-10.2-5.6-15.3c-0.4-1.1-1.2-2.1,0-3c1.8-1.5,7.3,0.3,8.2,2.6c2.1,5.7,4.5,11.3,6.2,17.1
		c1,3.6,3,4.9,6.1,3.7c3-1.1,3.1-3.7,1.9-6.6c-2.2-5.4-4.1-11-6.2-16.7c7.8,0,14.9,0,22.5,0c-2.2,6-4.1,11.6-6.2,17.1
		c-1.1,2.8-1.2,5.5,1.7,6.7c3.1,1.3,5-0.9,6.1-3.7c1.9-5.1,4-10.1,5.5-15.3c1.1-4,3.2-5.4,7.3-5.1c2.9,0.2,3.9,0.6,2.7,3.6
		c-1.8,4.4-3.3,9-5.2,13.4c-1.3,2.9-1.4,5.8,1.5,7.1c3.2,1.4,5.3-0.7,6.4-3.9c1.9-5.6,4.1-11.1,6.1-16.7c0.7-2.1,2-3.3,4.1-4.3
		C212.7,86.6,215.2,76.8,208.9,69.1z M140.8,57.3c3.5,0.8,5.2-0.6,5.8-4.2c1.3-7.1,5.7-11.1,11.4-11c5.7,0.1,9.8,4,11,10.9
		c0.5,2.7,1.6,4.5,4.4,4.4c3.1-0.2,4.2-2.5,3.8-5.3c-0.6-3.6,1.4-4.6,4.3-5.4c9.1-2.4,18.4,4.9,18,14.1c-0.1,1.8-0.2,3.4-2.7,3.2
		c-0.8-0.1-1.7,0-2.5,0c-21.7,0-43.5,0-66.2,0C131.6,58.6,135.2,56,140.8,57.3z M196.8,83.8c-11.3-0.1-22.7,0-34,0
		c-11,0-22-0.1-33,0c-4,0-7-1.1-7.5-5.5c-0.5-3.7,2.5-6.3,7.3-6.3c22.5-0.1,45,0,67.5,0c4,0,7.2,1.9,7,6
		C204,82.2,200.9,83.9,196.8,83.8z"/>
	<path class="st1" d="M162.8,17.3L162.8,17.3c-1.9,0-3.4-1.5-3.4-3.4V3.4c0-1.9,1.5-3.4,3.4-3.4h0c1.9,0,3.4,1.5,3.4,3.4v10.5
		C166.2,15.8,164.7,17.3,162.8,17.3z"/>
</g>
<g>
	<path class="st2" d="M326.5,51.4c0-8.2-1.8-10.8-9.5-13.6c-6.1-2.2-12.5-3-18.8-3.9c-1.6-0.2-2.6-0.5-3.4-2.1
		c-2.4-4.7-5.2-4.9-7.9-0.4c-0.9,1.5-1.7,1.8-3.1,1.6c-1.7-0.3-1.2-1.7-1.3-2.8c-0.2-2,0.1-3.9-0.7-5.9c-1-2.4-2.8-2.6-4.8-2.4
		c-2.4,0.2-2.3,2-2.3,3.7c0,1.5-0.2,3,0,4.5c0.3,2.7-0.6,3.7-3.5,3.9c-6.6,0.4-13.1,1.6-19.5,3.6c-5.1,1.6-9.4,4-9.4,10.3
		c0,17.6,0,35.2,0,52.9c0,0,0,0,0,0c0,0,0,0,0,0c0.6,2.5,0.6,5.2,3.1,7c3.8,2.6,8.1,3.7,12.4,5c8,2.4,16.2,1.6,24.3,2.8
		c2.5,0.4,6-0.7,6.2-4.3c0.2-3.5-2.3-4.4-5.4-4.3c-7.3,0.2-14.5-0.8-21.7-2.1c-10.1-1.8-10.8-2.6-10.8-12.6c0-2.2,0.1-4.3,0-6.5
		c-0.1-2.7,0.6-3.4,3.5-2.7c5.7,1.5,11.5,3.4,17.3,3.5c15.2,0.5,30.4,0.5,45.2-3.8c2.6-1.4,1.8,0.9,1.8,1.8c0.1,5.4,0,10.8,0,16.1
		c0,0,0,0,0,0c0,0,0,0,0,0c0.9,2.7,2.9,3.7,5.5,2.9c2.3-0.8,2.8-2.9,2.8-5.3C326.4,82.6,326.4,67,326.5,51.4z M272.9,41.8
		c2.2-0.3,1.6,1.7,1.6,2.9c-0.1,2.9,0.3,5.7,3.9,5.6c3.1-0.1,4-2.5,4-5.3c0-1.9-0.2-3.7,2.7-3.5c2.6,0.2,2.1,2,2.2,3.6
		c0.1,3.1-0.6,6.7,4.2,6.9c4-0.9,3.6-4.2,3.7-7.1c0.1-1.4-0.5-3.2,2.1-2.9c6.7,1,13.5,1.5,20.4,5.2c-8.7,4.2-17.4,5-26.1,5.4
		c-13.5,0.8-26.8,0.2-40.6-5.1C258.3,43,265.7,42.9,272.9,41.8z M318.3,60.8c0,0.3,0,0.7,0,1c0,12.4-0.3,12.8-12.5,14.9
		c-7.2,1.2-14.5,1.8-22.6,1.8c-8.8-0.4-18.4-0.9-27.7-3.7c-3.7-1.1-5.6-3-5.1-7.1c0.4-3.4-1.1-8.1,0.7-10.1c2.1-2.3,6.2,0.9,9.5,1.4
		c17.9,2.9,35.7,3.1,53.4-1.5C317.8,56.5,318.8,57.2,318.3,60.8z"/>
	<path class="st2" d="M292,23.5L292,23.5c-1.9,0-3.4-1.5-3.4-3.4V9.5c0-1.9,1.5-3.4,3.4-3.4h0c1.9,0,3.4,1.5,3.4,3.4v10.5
		C295.4,21.9,293.9,23.5,292,23.5z"/>
	<path class="st2" d="M278.4,18.1L278.4,18.1c-1.9,0-3.4-1.5-3.4-3.4V4.2c0-1.9,1.5-3.4,3.4-3.4l0,0c1.9,0,3.4,1.5,3.4,3.4v10.5
		C281.8,16.6,280.3,18.1,278.4,18.1z"/>
</g>
</svg>
